<svg xmlns="http://www.w3.org/2000/svg" viewBox="0 0 160 160" fill="none">
  <circle cx="80" cy="80" r="59" fill="#E7F3F0" stroke="#3B9E99" stroke-width="5"/>
  <path d="M55 45h50l-5 37c-2 15-10 24-20 24s-18-9-20-24l-5-37Z" fill="#3B9E99" stroke="#183351" stroke-width="4" stroke-linejoin="round"/>
  <path d="M55 56H39c0 18 8 28 22 28M105 56h16c0 18-8 28-22 28" stroke="#183351" stroke-width="4" stroke-linecap="round"/>
  <path d="M80 106v16M61 126h38" stroke="#183351" stroke-width="4" stroke-linecap="round"/>
  <path d="m64 81 10 9 21-23" stroke="#FF694D" stroke-width="5" stroke-linecap="round" stroke-linejoin="round"/>
  <path d="m34 51-7-5m99 0 7-5m-7 75 8 4" stroke="#FF967D" stroke-width="3" stroke-linecap="round"/>
</svg>
