<svg xmlns="http://www.w3.org/2000/svg" viewBox="0 0 160 160" fill="none">
  <path d="M44 112c-15-11-20-27-18-42m90 42c15-11 20-27 18-42" stroke="#3B9E99" stroke-width="3.5" stroke-linecap="round"/>
  <path d="m36 79 10 3m-12 10 11 1m2 10 10-3m67-21-10 3m12 10-11 1m-2 10-10-3" stroke="#3B9E99" stroke-width="3" stroke-linecap="round"/>
  <path d="M55 45h50l-5 37c-2 15-10 24-20 24s-18-9-20-24l-5-37Z" fill="#3B9E99" stroke="#183351" stroke-width="4" stroke-linejoin="round"/>
  <path d="M55 57H42c0 15 6 23 19 26m44-26h13c0 15-6 23-19 26" stroke="#183351" stroke-width="4" stroke-linecap="round"/>
  <path d="M80 106v16m-18 4h36" stroke="#183351" stroke-width="4" stroke-linecap="round"/>
  <path d="m68 79 8 8 17-19" stroke="#FF694D" stroke-width="5" stroke-linecap="round" stroke-linejoin="round"/>
  <path d="m73 30 7-8 7 8" stroke="#FF967D" stroke-width="3" stroke-linecap="round" stroke-linejoin="round"/>
</svg>
